<svg xmlns="http://www.w3.org/2000/svg" xmlns:xlink="http://www.w3.org/1999/xlink" width="1029.845" height="787.104" viewBox="0 0 1029.845 787.104"><defs><style>.a{opacity:0.2;}.b{fill:#fff;}.c{fill:#5084da;}.d{fill:#5193f4;}.e,.x,.z{opacity:0.4;}.f{opacity:0.228;}.g{fill:#605aca;}.ad,.ai,.g,.n,.v{opacity:0.5;}.h{fill:#4ca1ff;}.i{fill:#52d2bc;}.at,.j,.k{fill:none;stroke-linecap:round;stroke-linejoin:round;stroke-miterlimit:10;}.j{stroke:#00ad9f;}.k{stroke:#0b43a4;opacity:0.31;}.l{fill:#4a84d8;}.m{fill:#00ad9f;}.o{fill:#7ee8d4;}.p{fill:#5a4fd1;opacity:0.37;}.q{fill:#0056ec;}.r{fill:#c8eefb;}.s{clip-path:url(#a);}.t{opacity:0.09;}.u,.v{fill:#94ebff;}.ac,.ag,.ah,.ar,.as,.u{opacity:0.3;}.as,.w,.x{fill:#f9714e;}.y,.z{fill:#ffb255;}.aa,.ah{fill:#ffc2d3;}.ab,.ad{fill:#2e2c84;}.ae{fill:#001f64;}.af{fill:#9534ff;}.ag{fill:#8fc2ff;}.ai{fill:#ffc87c;}.aj{fill:#f9acc8;}.ak{opacity:0.1;}.al,.ar{fill:#eb4747;}.am{fill:#4b48b5;}.an{fill:#568edb;}.ao{fill:#5e9ce4;}.ap{opacity:0.16;}.aq{fill:#4e84d9;}.at{stroke:#086356;}</style><clipPath id="a"><circle cx="53.547" cy="53.547" r="53.547"/></clipPath></defs><g transform="translate(-7.914 -65.834)"><g class="a" transform="translate(66.275 65.834)"><path class="b" d="M955.07,347.949c14.426,26.222,35.4,50.951,37.215,80.512,2.911,47.483-43.386,83.284-62.318,127.289-23.239,54.014-3.75,117.658-24.318,172.65-14.907,39.855-51.472,71.689-94.441,82.222-32.205,7.9-66.077,4.328-99.327,4.656-94.4.917-188.43,33.557-281.542,18.739-45.978-7.315-89.444-26-135.635-31.988-55.388-7.185-119.924,1.506-159.508-36.138C79.9,713.3,120.95,616.611,79.45,553.519c-13.364-20.319-34.9-36.214-42.11-59.187-8.434-26.85,5.23-55.461,22.2-78.348S97.494,372.02,106.685,345.4c8.343-24.173,3.248-50.451-7.016-73.944-15.724-35.992,28.042-118.518,114.855-112.333,39.8,2.835,57.71-43.26,101.365-56.037,49.982-14.629,112.735-2.868,149.563,9.373,37.422,12.436,83.682,18.974,105.133-12.806C600.871,54.786,691.157,47.764,731.7,120.626c14.809,26.613,27.995,47.318,59.513,45.289C962.02,154.91,933.633,308.98,955.07,347.949ZM489.5,101.778c0,6.112,0,16.595,26.934,14.883,8.267-.526,15-4.954,15-11.065s-6.716-11.063-15-11.063S489.5,92.014,489.5,101.778ZM224.156,131.422a5.583,5.583,0,0,0-1.779,2.14c-1.745,2.7-4.76,4.428-7.841,5.632-1.805.706-3.746,1.317-5.077,2.677a5.486,5.486,0,0,0,.528,7.906c1.927,1.525,4.649,1.677,7.152,1.553a45.339,45.339,0,0,0,25.748-9.618C252.363,134.177,229.37,128.6,224.156,131.422ZM198.6,145.5c-3.157-2.071-7.228-.878-10.37.741a2.83,2.83,0,0,0-1.582,1.543c-.411,1.486,1.467,2.538,3,3.018,2.386.745,4.984,1.473,7.357.684S201.756,147.571,198.6,145.5ZM79.468,340.3c-2.333-7.122-7.852-10.663-16.2-6.607-4.982,2.42-8.454,6.918-11.43,11.43-4.8,7.287-8.938,15.615-7.928,24.169a22.735,22.735,0,0,0,9.664,15.791,12.747,12.747,0,0,0,7.47,2.6c2.963-.1,5.636-1.695,7.935-3.481,5.434-4.217,9.614-9.688,13.731-15.1,2.134-2.8,4.341-5.775,4.749-9.219C88.321,352.589,81.614,346.856,79.468,340.3ZM952.817,559.7c-2.134.869-4.313,1.968-5.538,3.848a11.179,11.179,0,0,0-1.406,4.969,99.085,99.085,0,0,0-.6,10.8c0,3.95.424,8.326,3.459,11.015,4.087,3.62,10.574,2.351,15.93.858,3.016-.845,6.233-1.812,8.173-4.172a13.025,13.025,0,0,0,2.327-6.122c1.3-7.2,5.264-18.12.865-21.85S960.476,556.582,952.817,559.7ZM651.089,838.717a12.518,12.518,0,0,0-2.77,3.441,7.569,7.569,0,0,0,3.9,10.031,15.928,15.928,0,0,0,6.2.739c17.968-.241,37.283-.9,51.638-11.211,1.751-1.256,3.563-3.027,3.253-5.1-.376-2.5-3.485-3.585-6.086-4.091C689.261,829.064,665.527,825.186,651.089,838.717ZM310,810.983c-15.63-2.11-40.483-5.093-40.477,7.55,0,4.769,22.055,9.362,25.7,10.244,11.285,2.724,21.855,6.746,32.881,10.818,20.46,7.559,36.846-2.622,20.645-14.038C335.4,816.143,322.605,812.68,310,810.983Z" transform="translate(-34.776 -65.834)"/></g><g transform="translate(7.914 202.808)"><g transform="translate(808.464 244.703)"><g transform="translate(22.539)"><path class="c" d="M395.292,300.655s36.309-3.315,70.72-17.412c1.089-.445,1.749,6.948,1.749,6.948s5.064-9.888,6.826-10.718c18.624-8.784,35.705-21.023,44.859-37.967,0,0,4.51,103.9-129.049,126.977Z" transform="translate(-390.397 -241.507)"/></g><g transform="translate(9.319 177.673)"><path class="c" d="M446.845,323.284s44.079,23.365,130.275,27.425c0,0-58.638,53.513-192.808,35.088l4.4-60.945Z" transform="translate(-384.312 -323.284)"/></g><g transform="translate(10.188 78.99)"><path class="d" d="M384.712,317.227s19.9-12.712,52.194-23.686c1.288-.437,4.013,7.176,4.013,7.176s4.413-9.914,6.744-10.613c38.584-11.554,91.382-19.1,148.242-3.046,0,0-17.227,24-52.487,50.269-1.5,1.121-11.461.235-11.461.235s4.182,5.038,2.807,5.994c-33.5,23.3-81.007,47.034-143.054,56.435Z" transform="translate(-384.712 -277.863)"/></g><g class="e" transform="translate(0 88.184)"><path class="c" d="M601.4,282.1a495.2,495.2,0,0,1-51.9,28.753c-17.792,8.693-36.086,16.334-54.612,23.334-9.249,3.55-18.7,6.516-28.082,9.7l-14.233,4.263c-2.375.7-4.736,1.445-7.122,2.1l-7.2,1.808c-19.124,5.18-38.66,8.654-58.223,11.45l14.522-2.992,7.261-1.467c2.409-.532,4.8-1.169,7.2-1.747l14.4-3.433,14.266-3.946c9.534-2.538,18.9-5.666,28.334-8.526,9.314-3.248,18.7-6.292,27.882-9.9,18.537-6.746,36.742-14.4,54.675-22.635q13.466-6.15,26.682-12.84Q588.491,289.39,601.4,282.1Z" transform="translate(-380.023 -282.095)"/><g transform="translate(100.805 11.068)"><path class="c" d="M426.42,331.824c3.678-3.439,7.248-6.939,10.813-10.42,3.531-3.518,7.016-7.061,10.366-10.724,3.387-3.631,6.555-7.441,9.675-11.3,3.048-3.917,5.927-7.958,8.68-12.191a65.423,65.423,0,0,1-6.859,13.5,99.882,99.882,0,0,1-9.379,11.932A106.25,106.25,0,0,1,426.42,331.824Z" transform="translate(-426.42 -287.189)"/></g><g transform="translate(47.42 29.001)"><path class="c" d="M401.849,338.164a95.184,95.184,0,0,0,11.128-8.669,87.348,87.348,0,0,0,9.642-10.068,83.23,83.23,0,0,0,8-11.4,121.618,121.618,0,0,0,6.4-12.586,53.1,53.1,0,0,1-4.415,13.64,57.052,57.052,0,0,1-7.765,12.173,59.2,59.2,0,0,1-10.44,9.968A47.751,47.751,0,0,1,401.849,338.164Z" transform="translate(-401.849 -295.443)"/></g><g transform="translate(100.805 52.709)"><path class="c" d="M426.42,309.349a184.448,184.448,0,0,0,20.429-.1c3.372-.176,6.722-.574,10.07-1.058,3.372-.435,6.666-1.212,10.109-1.834a38.523,38.523,0,0,1-9.642,4.028,50.028,50.028,0,0,1-10.351,1.732,55.435,55.435,0,0,1-10.47-.3A40.645,40.645,0,0,1,426.42,309.349Z" transform="translate(-426.42 -306.355)"/></g><g transform="translate(48.505 71.8)"><path class="c" d="M402.348,315.142c4.148.5,8.263.9,12.356,1.319,4.1.374,8.182.717,12.269.893,4.087.2,8.165.18,12.254.072a123.176,123.176,0,0,0,12.3-1.228,45.408,45.408,0,0,1-12.086,3.463,72.222,72.222,0,0,1-12.593.565A77.054,77.054,0,0,1,402.348,315.142Z" transform="translate(-402.348 -315.142)"/></g></g><g class="f" transform="translate(37.298 27.002)"><path class="g" d="M497.76,253.935c-3.557,9.747-9.827,18.335-16.94,25.9a112.232,112.232,0,0,1-24.56,19.189l-6.889,3.685c-2.288,1.249-4.741,2.151-7.107,3.22a128.531,128.531,0,0,1-14.648,5.306c-2.444.882-5.008,1.349-7.52,1.984l-7.557,1.8c-5.117.8-10.238,1.551-15.35,2.194,5.014-1.288,10.057-2.307,15.035-3.57l7.389-2.173c2.451-.756,4.951-1.341,7.32-2.338,4.765-1.879,9.664-3.389,14.235-5.695,2.3-1.108,4.715-1.981,6.935-3.235l6.718-3.665a130.456,130.456,0,0,0,24.434-18.25,75.7,75.7,0,0,0,5.33-5.495c.843-.958,1.723-1.89,2.535-2.874l2.368-3.018A74.386,74.386,0,0,0,497.76,253.935Z" transform="translate(-397.19 -253.935)"/></g><g transform="translate(29.65 196.174)"><path class="h" d="M537.989,348.061c-6.038,1.16-12.152,1.875-18.261,2.592q-9.181.89-18.411,1.351a315.734,315.734,0,0,1-36.944-.524c-6.144-.521-12.28-1.225-18.374-2.207a166.754,166.754,0,0,1-18.15-3.644c-11.939-3.094-23.671-7.407-34.178-13.831a134.521,134.521,0,0,0,17.034,6.853,165.862,165.862,0,0,0,17.659,4.828,257.875,257.875,0,0,0,36.236,5.136c12.176,1.075,24.416,1.312,36.657,1.186C513.5,349.656,525.748,349.111,537.989,348.061Z" transform="translate(-393.67 -331.799)"/><g transform="translate(47.018 15.339)"><path class="h" d="M454.838,361.316a46.16,46.16,0,0,1-23.593-4.663,36.362,36.362,0,0,1-9.862-7.307,27.544,27.544,0,0,1-6.073-10.487,45.23,45.23,0,0,0,7.639,8.88,48.666,48.666,0,0,0,9.59,6.349,74.618,74.618,0,0,0,10.809,4.3A113.972,113.972,0,0,0,454.838,361.316Z" transform="translate(-415.311 -338.859)"/></g><g transform="translate(20.681 9.223)"><path class="h" d="M436.919,366.529a46.159,46.159,0,0,1-22.024-9.662,36.417,36.417,0,0,1-8.045-9.269,27.586,27.586,0,0,1-3.661-11.554,45.225,45.225,0,0,0,5.536,10.322,48.892,48.892,0,0,0,7.989,8.276,74.691,74.691,0,0,0,9.623,6.538A115.11,115.11,0,0,0,436.919,366.529Z" transform="translate(-403.189 -336.044)"/></g></g></g><g transform="translate(386.881 450.102)"><path class="i" d="M339.371,454.364a71.689,71.689,0,0,0-54.284-24.342c-15.111.2-29.95,5.221-45.028,4.3a57.567,57.567,0,0,1-53.5-65.751c1.747-11.947,8-23.945,18.815-29.29,5.894-2.907,12.71-3.633,19.261-3.044a54.224,54.224,0,0,1,17.3,4.628c12.51,5.553,23.391,15.339,32.088,26.141,7.9,9.825,25.928,24.279,38.119,33.611,7.148,5.449,12.3,9.136,12.3,9.136C333.039,417.693,333.487,444.239,339.371,454.364Z" transform="translate(-185.983 -336.045)"/><path class="j" d="M195.637,352.979c37.978,10.818,79.928,26.148,109.582,52.226" transform="translate(-174.662 -316.187)"/></g><g transform="translate(557.798 452.744)"><path class="d" d="M359.46,366.066c-.561,6.309-1.855,12.76-4.917,18.494a41.757,41.757,0,0,1-8.221,10.479,64.79,64.79,0,0,1-5.269,4.463A76.7,76.7,0,0,1,318,411.592c-11.876,3.78-24.59,4.482-35.506,11.176a43.16,43.16,0,0,0-17.8,22.294l-.046-10.637c1.162-11.776,2.355-23.769,6.744-35.025a100.091,100.091,0,0,1,11.4-20.54,142.217,142.217,0,0,1,24.851-27.94c7.665-6.468,16.447-11.958,25.822-13.353,9.36-1.4,19.324,2.06,23.61,10.309C359.83,353.171,360.03,359.737,359.46,366.066Z" transform="translate(-264.65 -337.261)"/><path class="k" d="M267.684,418.76a88.254,88.254,0,0,1,32.284-38.969c8.767-5.755,18.379-9.69,27.33-15.085s17.57-12.727,21.768-22.563" transform="translate(-261.092 -331.536)"/></g><g transform="translate(535.016 520.392)"><path class="i" d="M268.925,397.654c16.706-16.573,40.4-24.166,63.7-27.508,19.43-2.785,39.838-2.89,58.01,4.528,5.694,2.323,11.309,5.553,14.676,10.7s3.846,12.573-.267,17.147c-3.47,3.854-9.1,4.8-14.29,4.982-17.064.613-33.757-4.347-50.469-7.85-28.725-6.02-60-7.474-86.118,5.925" transform="translate(-254.164 -368.397)"/><path class="j" d="M270.545,382.618c34.576-14.583,84.516-9.886,106.3,5.188" transform="translate(-234.955 -362.076)"/></g><g transform="translate(0 325.522)"><path class="l" d="M169.557,324.526c-15.624-7.506-23.113-27.51-35.949-31.81-15.908-5.5-20.369,12.271-46.091,7.878-21.588-3.687-28.147-27.966-64.235-20.456-11.02,2.294-18.335,11.611-14.2,22.783,3.1,11.117,18.407,18.153,27.519,23.832,8.08,4.563,15.232,7.009,20.023,15.493.05.089.1.185.141.276,3.222,6.9,1.936,13.045,9.46,18.089,17.627,12.895,39.579-7.58,59.631-6.983,14.142.424,13.746,15.109,30.75,19.361,16.838,4.211,11.315-10.866,46.643,2.827a2.465,2.465,0,0,0,3.189-1.414h0a2.461,2.461,0,0,0-.519-2.581C181.194,345.937,192.554,335.578,169.557,324.526Z" transform="translate(-7.914 -278.705)"/><path class="m" d="M169.557,324.526c-15.624-7.506-23.113-27.51-35.949-31.81-15.908-5.5-20.369,12.271-46.091,7.878-21.588-3.687-28.147-27.966-64.235-20.456-11.02,2.294-18.335,11.611-14.2,22.783,3.1,11.117,18.407,18.153,27.519,23.832,8.08,4.563,15.232,7.009,20.023,15.493.05.089.1.185.141.276,3.222,6.9,1.936,13.045,9.46,18.089,17.627,12.895,39.579-7.58,59.631-6.983,14.142.424,13.746,15.109,30.75,19.361,16.838,4.211,11.315-10.866,46.643,2.827a2.465,2.465,0,0,0,3.189-1.414h0a2.461,2.461,0,0,0-.519-2.581C181.194,345.937,192.554,335.578,169.557,324.526Z" transform="translate(-7.914 -278.705)"/><g class="n" transform="translate(19.1 15.079)"><path class="h" d="M179.243,350.118c-13.44-6.944-21.194-21.588-35.358-27.38a24.929,24.929,0,0,0-10.044-1.962c-4.923.113-9.747,2.123-14.7,1.616-7.1-.721-11.554-6.916-17.846-9.508-7.2-2.97-14.546,1.621-21.992-.183-7.561-1.831-13.744-7.357-19.73-12.008C47.137,291.028,33.01,285.6,17.154,285.646c-.806,0-.448,2.127.461,2.125,17.486-.046,31.493,6.981,45,17.464,5.058,3.926,10.45,8.052,16.8,9.588,7.606,1.845,15.3-2.874,22.552.482,5.7,2.638,9.927,8.026,16.369,9.066,7.922,1.275,15.248-2.874,23.276-.369,15.363,4.793,23.421,20.866,37.4,28.088.989.506.954-1.6.239-1.973Z" transform="translate(-16.706 -285.646)"/></g></g><g transform="translate(76.63 459.87)"><path class="o" d="M280.294,357.064c-51.4,5.434-59.622,9.873-71.945,4.547-15.706-6.79-32.21-5.106-48.04-11.593s-33.024-11.448-49.91-8.706c-5.34.867-11.263,3.035-12.008,9.3a10.256,10.256,0,0,0,1.986,7.107c3.72,5.19,9.8,6.931,15.611,8.534l19.432,5.36c6.32,1.745,5.916,11.052-.574,11.984l-.163.024c-5.443.739-10.955-.341-16.319-1.527-11.669-2.583-23.36-5.727-35.312-5.745-14.463-.02-29.8,5.2-36.948,18.689a24.813,24.813,0,0,0-2.585,15.674c2.52,14.915,16.471,19.893,28.835,18.778,8.7-.784,16.923-4.145,25.138-7.118,20.064-7.259,37.233.747,58.562,1.3C214.912,425.2,280.294,357.064,280.294,357.064Z" transform="translate(-43.185 -340.541)"/><path class="j" d="M50.688,394.175c36.6-4.18,73.466-8.415,108.581-19.545,10.3-3.263,23.567-4.167,52.637-25.622" transform="translate(-34.386 -330.612)"/></g><g transform="translate(82.534 139.741)"><path class="o" d="M115.586,364.637a20.691,20.691,0,0,0,3.826,2.37c6.281,3.1,13.475,3.526,18.472,9.164,3.337,3.548,5.145,8.3,7.637,12.525a22.526,22.526,0,0,0,1.71,2.675c7.726,10.6,15.328,11.826,23.463,11.643,3.337-.08,6.79-.4,10.342-.4a34.382,34.382,0,0,1,17.44,4.117,47.6,47.6,0,0,1,12.382,10.077,2.592,2.592,0,0,0,3.287.215,2.8,2.8,0,0,0,1.278-2.846c-2.175-9.781-6.429-16.2-11.55-21.025-14.4-13.625-35.651-14.707-36.939-42.832-.272-6.023,1.008-10.3.046-14.589a15.175,15.175,0,0,0-3.683-6.746c-4.354-4.691-10.613-6.766-16.191-10.516-15.1-10.77-7.9-28.395-9.242-45.163-.9-13.688-13.208-22.6-23.271-30.35C102.009,233.7,102.037,217,93.546,204.587c-8.473-12.423-29.572-17.427-40.8-.734-11.917,16.662-5.373,37.5-1.947,54.4a39.22,39.22,0,0,0,4.51,11.911c6.281,10.97,17.064,18.785,26.378,28.075A66.739,66.739,0,0,1,95.558,317.7a57.361,57.361,0,0,1,4.306,13.636c.2,1.128.419,2.24.637,3.357C102.674,346.415,105.237,356.853,115.586,364.637Z" transform="translate(-45.902 -193.197)"/><g class="n" transform="translate(16.143 10.058)"><path class="h" d="M53.334,198.665c.6,15.4,1.779,31.4,13.325,42.84,5.388,5.34,11.861,9.5,16.949,15.154,3.583,3.98,5.373,8.191,6.766,13.316.767,2.827,1.412,5.771,3.118,8.215,2.018,2.9,5,4.317,7.906,6.164a26.692,26.692,0,0,1,9.032,9.725c3.457,6.129,5.323,13,8.421,19.306a38.154,38.154,0,0,0,4.886,7.767c3.09,3.687,7.774,6,9.855,10.457,3.537,7.567,2.049,16.695,5.473,24.525,7.985,18.263,26.917,27.371,43.951,35.393,1.006.476.96-1.627.232-1.968-16.566-7.8-35.2-16.543-43.1-34.252-3.235-7.248-2.283-15.072-4.639-22.465-2.255-7.081-9.171-9.981-13.108-15.939-6.657-10.075-7.822-23.6-17.2-31.908-3.1-2.744-7.489-4.072-10.192-7.237-3.216-3.77-3.3-9.284-5.06-13.755-2.26-5.758-6.577-10.231-11.176-14.22-6.742-5.844-14.2-10.974-18.379-19.111-4.98-9.7-5.31-21.036-5.729-31.706-.046-1.106-1.388-1.751-1.332-.3Z" transform="translate(-53.332 -197.826)"/></g><path class="p" d="M121.856,325.686A34.383,34.383,0,0,1,139.3,329.8c.554-8.63,3.457-10.422,5.395-13.579-14.4-13.625-35.651-14.707-36.94-42.832-.272-6.023,1.008-10.3.046-14.589-4.3,9.019-12,10.87-11.4,20.075.524,9.5,12.671,18.289,14.848,30.272C113.042,319.044,116.689,321.567,121.856,325.686Z" transform="translate(13.277 -116.263)"/></g><g transform="translate(325.168 487.794)"><path class="c" d="M189.39,356.5c-9.712-3.835-22.678-5.41-28.905,2.972-5.212,7.016-2.514,16.962,1.086,24.927,3.04,6.727,6.9,13.562,13.312,17.218,4.38,2.5,9.512,3.248,14.518,3.843a347.934,347.934,0,0,0,42.087,2.436c16.3-.046,36.038,6.609,49.521,16.771C263.7,392.507,222.071,369.412,189.39,356.5Z" transform="translate(-157.578 -353.393)"/><path class="k" d="M164.378,364.449c12.36.526,24.833,1.395,36.7,4.9,12.132,3.587,58.8,25.005,66.1,34.119" transform="translate(-149.605 -340.429)"/></g><g transform="translate(818.463 129.021)"><path class="o" d="M397.63,310.96a19.7,19.7,0,0,0-.4,4.287c.022,6.7,2.714,13.045.011,19.726-1.619,4.367-4.923,7.941-7.478,11.874a21.857,21.857,0,0,0-1.564,2.6c-5.79,11.128-3.607,18.166.011,25.055,1.49,2.827,3.231,5.649,4.741,8.691a32.91,32.91,0,0,1,3.9,16.695,45.431,45.431,0,0,1-3.361,14.9,2.472,2.472,0,0,0,1.215,2.9,2.677,2.677,0,0,0,2.981-.117c7.454-6.025,11.144-12.4,13.1-18.841,5.542-18.135-2.577-36.8,20.97-49.875,5.045-2.8,9.251-3.52,12.519-6.17a14.525,14.525,0,0,0,4.211-6.027c2.168-5.727,1.282-11.971,2.121-18.346,2.8-17.52,20.962-18.854,34.758-27.141,11.346-6.6,13.74-20.931,16.1-32.855,2.579-14.72,16.9-21.8,23.919-34.361,7.037-12.547,2.344-32.751-16.734-35.262-19.345-3.118-34.408,11.356-47.429,21.485a37.528,37.528,0,0,0-8.284,8.934c-6.727,10.049-8.83,22.613-12.825,34.547a63.83,63.83,0,0,1-10.774,20.162,54.821,54.821,0,0,1-9.851,9.492c-.878.652-1.742,1.312-2.6,1.975C407.748,292.145,399.894,298.782,397.63,310.96Z" transform="translate(-384.625 -188.263)"/><g class="n" transform="translate(17.824 8.082)"><path class="h" d="M502.529,192.053c-13.327,7.287-26.272,15.167-30.954,30.467-2.131,6.961-2.944,14.363-5.918,21.057-1.892,4.261-4.747,7.378-8.228,10.4-2.388,2.075-4.843,4.165-6.094,7.161-1.451,3.472-.971,7.4-1.736,11.015a27.628,27.628,0,0,1-5.316,10.763c-4.159,5.534-9.432,10.164-13.316,15.915-4.258,6.307-3.985,15.217-9.705,20.323-5.312,4.743-11.893,7.331-16.614,12.866-12.434,14.578-12.065,35.054-11.689,53.091.024,1.112,1.36,1.751,1.33.3-.376-18.02-.765-38.758,12.447-52.826,4.834-5.145,11.732-7.559,16.532-12.643,4.7-4.982,4.4-12.5,7.958-18.244,6.32-10.2,18.018-17.36,19.956-29.963.86-5.6.793-10.057,5.256-14.24,2.331-2.186,4.895-4.045,6.887-6.577,4.05-5.145,5.66-11.661,7.135-17.909,2.073-8.788,4.284-17.155,10.729-23.86C487.414,202.68,495.5,198.3,503.3,194.03c.713-.391.091-2.451-.776-1.977Z" transform="translate(-392.829 -191.983)"/></g></g><g transform="translate(742.235 467.371)"><path class="l" d="M382.632,396.543c14.8,8.347,20.836,28.39,33.111,33.42,15.206,6.4,20.71-10.692,45.582-4.743,20.873,4.993,25.729,29.159,61.506,24.132,10.924-1.534,18.676-10.177,15.348-21.366-2.314-11.076-16.834-18.939-25.383-25.077-7.609-4.98-14.446-7.832-18.587-16.436-.043-.091-.085-.187-.122-.28-2.707-6.95-1.052-12.882-8.089-18.3-16.41-13.742-39.195,4.869-58.766,2.994-13.8-1.321-12.471-15.658-28.829-20.907-16.2-5.2-11.765,9.9-45.43-5.762a2.419,2.419,0,0,0-3.211,1.178h0a2.414,2.414,0,0,0,.341,2.559C372.627,374.853,360.851,384.256,382.632,396.543Z" transform="translate(-349.54 -343.993)"/><path class="m" d="M382.632,396.543c14.8,8.347,20.836,28.39,33.111,33.42,15.206,6.4,20.71-10.692,45.582-4.743,20.873,4.993,25.729,29.159,61.506,24.132,10.924-1.534,18.676-10.177,15.348-21.366-2.314-11.076-16.834-18.939-25.383-25.077-7.609-4.98-14.446-7.832-18.587-16.436-.043-.091-.085-.187-.122-.28-2.707-6.95-1.052-12.882-8.089-18.3-16.41-13.742-39.195,4.869-58.766,2.994-13.8-1.321-12.471-15.658-28.829-20.907-16.2-5.2-11.765,9.9-45.43-5.762a2.419,2.419,0,0,0-3.211,1.178h0a2.414,2.414,0,0,0,.341,2.559C372.627,374.853,360.851,384.256,382.632,396.543Z" transform="translate(-349.54 -343.993)"/><g class="n" transform="translate(15.274 16.237)"><path class="h" d="M357.063,353.536c13.095,7.924,19.9,23.721,34.337,29.733,7.8,3.244,14.8-.13,22.672,1.234,7.126,1.234,10.987,7.9,17.3,10.692,6.724,2.974,14.077-.808,21.033,1.345,7.48,2.314,13.253,8.393,18.961,13.427,11.343,10,24.727,16.058,39.905,17.014.98.063.7-2.066-.113-2.121-17.077-1.076-30.348-8.714-42.882-19.856-4.4-3.913-8.995-7.926-14.557-10.083-7.689-2.977-16.18,1.556-23.382-2.338-5.171-2.8-8.793-8.119-14.607-9.8-7.543-2.184-15.272,1.623-22.9-1.039-15.165-5.286-22.174-22.1-35.532-30.18-.932-.56-.923,1.56-.235,1.975Z" transform="translate(-356.57 -351.467)"/></g></g><g transform="translate(48.097 271.848)"><g transform="translate(0 115.084)"><path class="c" d="M228.65,399.429s-64.517-14.114-114.134-8.8c-1.569.167.343-9.61.343-9.61s-10.222,10.85-12.8,11.265c-27.286,4.36-53.873,13.755-72.006,32.175,0,0,33.007-135.6,213.779-115.442Z" transform="translate(-30.052 -306.97)"/></g><g transform="translate(46.849)"><path class="d" d="M240.869,468.818s-28.905-12.975-64.988-41.15c-1.44-1.123,5.1-9.781,5.1-9.781s-14.374,2.342-16.871.241c-41.359-34.8-88.673-88.5-112.5-164.127,0,0,39.608,1.675,95.036,21.918,2.359.86,8.7,12.69,8.7,12.69s2.579-8.4,4.66-7.561c50.8,20.46,112.389,56.3,168.594,119.023Z" transform="translate(-51.615 -254.001)"/></g><g class="e" transform="translate(46.847 1.845)"><path class="c" d="M51.614,254.85c24.271,10.763,47.642,23.5,70.459,37.092,22.848,13.573,44.885,28.479,66.373,44.12,10.789,7.767,21.075,16.2,31.545,24.382l15.254,12.836c2.529,2.153,5.106,4.252,7.6,6.451l7.333,6.755c19.88,17.651,38.158,37.02,55.69,56.917l-14.044-14.1-6.987-7.068c-2.37-2.312-4.843-4.526-7.257-6.794l-14.446-13.636-14.926-13.1c-9.862-8.832-20.264-17.038-30.415-25.527-10.5-8.063-20.818-16.356-31.623-24.01-21.214-15.836-43.192-30.639-65.632-44.707q-16.81-10.585-34.043-20.495Q69.3,263.969,51.614,254.85Z" transform="translate(-51.614 -254.85)"/><g transform="translate(72.056 80.569)"><path class="c" d="M163.959,305.7c-6.568-1.6-13.123-3.029-19.652-4.469-6.546-1.373-13.086-2.677-19.66-3.741-6.566-1.132-13.173-1.882-19.8-2.544-6.64-.541-13.292-.8-20.069-.773a87.886,87.886,0,0,1,20.2-2.233,133.887,133.887,0,0,1,20.293,1.747C138.635,295.994,151.8,299.717,163.959,305.7Z" transform="translate(-84.779 -291.933)"/></g><g transform="translate(32.323 47.436)"><path class="c" d="M121.931,280.111c-4.678-.28-9.325-.445-13.957-.621-4.634-.13-9.258-.213-13.875-.128-4.619.039-9.219.341-13.82.708-4.6.45-9.166,1.1-13.788,1.947A60.937,60.937,0,0,1,80,278a92.78,92.78,0,0,1,14.059-1.312A98.854,98.854,0,0,1,121.931,280.111Z" transform="translate(-66.491 -276.683)"/></g><g transform="translate(134.674 128.606)"><path class="c" d="M187.418,327.894a127.824,127.824,0,0,0-17.916-6.112,117.34,117.34,0,0,0-18.4-3.411,110.953,110.953,0,0,0-18.676-.591,164.023,164.023,0,0,0-18.83,2.081,71.231,71.231,0,0,1,18.557-5.08,76.491,76.491,0,0,1,19.376-.243,79.573,79.573,0,0,1,18.867,4.384A63.988,63.988,0,0,1,187.418,327.894Z" transform="translate(-113.6 -314.043)"/></g><g transform="translate(117.993 50.955)"><path class="c" d="M139.166,321.68a248.17,248.17,0,0,0-15.148-22.854c-2.677-3.657-5.588-7.122-8.6-10.522-2.968-3.465-6.264-6.59-9.5-10a51.73,51.73,0,0,1,11.617,7.861A66.926,66.926,0,0,1,127.1,296.5a74.506,74.506,0,0,1,7.37,11.973A54.667,54.667,0,0,1,139.166,321.68Z" transform="translate(-105.922 -278.303)"/></g><g transform="translate(172.787 85.218)"><path class="c" d="M166.139,350.039c-2.494-5.023-5.077-9.929-7.611-14.835-2.6-4.875-5.217-9.712-8.026-14.429-2.779-4.736-5.805-9.295-8.936-13.805a165.132,165.132,0,0,0-10.424-12.9,60.954,60.954,0,0,1,12.78,11.018,97.256,97.256,0,0,1,9.9,13.716A103.5,103.5,0,0,1,166.139,350.039Z" transform="translate(-131.142 -294.073)"/></g></g><g class="n" transform="translate(27.771 155.186)"><path class="h" d="M42.834,373.142c8.224-11.235,19.517-19.962,31.508-27.05a150.822,150.822,0,0,1,38.823-15.556l10.259-2.175c3.413-.758,6.911-1,10.366-1.495,6.913-1.052,13.9-1.158,20.862-1.367,3.481-.224,6.959.133,10.433.252l10.411.506c6.9.876,13.775,1.827,20.6,2.909-6.942-.215-13.825-.784-20.712-1.019l-10.337.039a102.581,102.581,0,0,0-10.307.28c-6.846.641-13.723.758-20.477,2.023-3.378.567-6.816.793-10.148,1.579l-10.025,2.212a175.149,175.149,0,0,0-38.313,14.4,101.343,101.343,0,0,0-8.923,5.091c-1.443.921-2.927,1.792-4.341,2.761l-4.18,3A99.507,99.507,0,0,0,42.834,373.142Z" transform="translate(-42.834 -325.428)"/></g><g class="n" transform="translate(121.432 156.985)"><path class="h" d="M103.865,326.256c-3.759,5.994-7.422,11.661-10.483,17.655A70.992,70.992,0,0,0,86.571,363c-1.664-6.994.159-14.52,3.378-20.849a47.354,47.354,0,0,1,5.983-8.845A35.634,35.634,0,0,1,103.865,326.256Z" transform="translate(-85.943 -326.256)"/></g></g><g transform="translate(178.417 20.439)"><rect class="q" width="106.847" height="73.481" transform="translate(293.921 451.939)"/><rect class="g" width="106.847" height="26.632" transform="translate(293.921 451.939)"/><path class="q" d="M423.563,379.587H206.689a12.4,12.4,0,1,0,0,24.8H423.563a12.4,12.4,0,0,0,12.4-12.4h0A12.4,12.4,0,0,0,423.563,379.587Z" transform="translate(32.219 144.677)"/><path class="g" d="M435.97,386.923a12.4,12.4,0,0,1-12.408,12.391H206.692a12.4,12.4,0,0,1-12.406-12.391,10.931,10.931,0,0,1,.393-3.009,12.359,12.359,0,0,0,12.015,9.4h216.87a12.359,12.359,0,0,0,12.015-9.4A10.993,10.993,0,0,1,435.97,386.923Z" transform="translate(32.218 149.751)"/><path class="b" d="M100.138,597.542a7.613,7.613,0,0,1-7.6-7.6V148.39a7.613,7.613,0,0,1,7.6-7.6H768.76a7.613,7.613,0,0,1,7.6,7.6V589.937a7.613,7.613,0,0,1-7.6,7.6Z" transform="translate(-87.102 -135.354)"/><path class="q" d="M771.69,149.149a2.176,2.176,0,0,1,2.173,2.173V592.869a2.175,2.175,0,0,1-2.173,2.173H103.07a2.175,2.175,0,0,1-2.173-2.173V151.322a2.176,2.176,0,0,1,2.173-2.173H771.69m0-10.863H103.07a13.038,13.038,0,0,0-13.036,13.036V592.869A13.038,13.038,0,0,0,103.07,605.9H771.692a13.038,13.038,0,0,0,13.036-13.036V151.322a13.04,13.04,0,0,0-13.038-13.036Z" transform="translate(-90.034 -138.286)"/><g transform="translate(0 410.517)"><path class="q" d="M784.724,370.4V327.233H90.034V370.4a14.7,14.7,0,0,0,14.709,14.707H770.017A14.705,14.705,0,0,0,784.724,370.4Z" transform="translate(-90.034 -327.233)"/></g><g transform="translate(293.8 46.121)"><circle class="r" cx="53.547" cy="53.547" r="53.547" transform="translate(0)"/><g transform="translate(0)"><g class="s"><path class="c" d="M287.453,189.7a20.692,20.692,0,1,1-20.692-20.692A20.694,20.694,0,0,1,287.453,189.7Zm10.533,86.648V240.194A24.882,24.882,0,0,0,273.1,215.313H260.414a24.881,24.881,0,0,0-24.881,24.881v36.157a6.9,6.9,0,0,0,6.9,6.9h48.663A6.9,6.9,0,0,0,297.986,276.351Z" transform="translate(-213.213 -148.377)"/></g></g></g><path class="r" d="M458.609,259.714H202.373a21.187,21.187,0,0,1-21.188-21.188h0a21.187,21.187,0,0,1,21.188-21.188H458.609A21.187,21.187,0,0,1,479.8,238.526h0A21.187,21.187,0,0,1,458.609,259.714Z" transform="translate(16.855 -45.585)"/><path class="c" d="M436.465,235.611H198.016a5.534,5.534,0,0,1-5.532-5.534h0a5.532,5.532,0,0,1,5.532-5.534H436.465A5.534,5.534,0,0,1,442,230.077h0A5.533,5.533,0,0,1,436.465,235.611Z" transform="translate(30.105 -37.136)"/><path class="r" d="M458.706,294.792H202.467A21.186,21.186,0,0,1,181.279,273.6h0a21.187,21.187,0,0,1,21.188-21.188H458.706A21.188,21.188,0,0,1,479.893,273.6h0A21.187,21.187,0,0,1,458.706,294.792Z" transform="translate(16.965 -4.451)"/><path class="c" d="M197.036,270.861h0a5.534,5.534,0,0,1-5.534-5.534h0a5.534,5.534,0,0,1,5.534-5.534h0a5.534,5.534,0,0,1,5.532,5.534h0A5.531,5.531,0,0,1,197.036,270.861Zm21.985-5.534h0a5.534,5.534,0,0,0-5.532-5.534h0a5.534,5.534,0,0,0-5.534,5.534h0a5.534,5.534,0,0,0,5.534,5.534h0A5.534,5.534,0,0,0,219.021,265.327Zm16.454,0h0a5.534,5.534,0,0,0-5.532-5.534h0a5.534,5.534,0,0,0-5.534,5.534h0a5.534,5.534,0,0,0,5.534,5.534h0A5.534,5.534,0,0,0,235.474,265.327Zm16.454,0h0a5.534,5.534,0,0,0-5.534-5.534h0a5.534,5.534,0,0,0-5.532,5.534h0a5.534,5.534,0,0,0,5.532,5.534h0A5.534,5.534,0,0,0,251.928,265.327Zm16.453,0h0a5.534,5.534,0,0,0-5.534-5.534h0a5.534,5.534,0,0,0-5.532,5.534h0a5.534,5.534,0,0,0,5.532,5.534h0A5.534,5.534,0,0,0,268.381,265.327Zm16.451,0h0a5.534,5.534,0,0,0-5.534-5.534h0a5.534,5.534,0,0,0-5.532,5.534h0a5.534,5.534,0,0,0,5.532,5.534h0A5.534,5.534,0,0,0,284.833,265.327Zm16.454,0h0a5.534,5.534,0,0,0-5.534-5.534h0a5.534,5.534,0,0,0-5.532,5.534h0a5.534,5.534,0,0,0,5.532,5.534h0A5.534,5.534,0,0,0,301.286,265.327Z" transform="translate(28.953 4.2)"/><path class="c" d="M317.371,331.539h-72.78A21.187,21.187,0,0,1,223.4,310.351h0a21.186,21.186,0,0,1,21.188-21.188h72.78a21.186,21.186,0,0,1,21.188,21.188h0A21.187,21.187,0,0,1,317.371,331.539Z" transform="translate(66.363 38.641)"/></g><path class="t" d="M455.077,418.6V394.382a14.429,14.429,0,0,0-14.429-14.426h-1.258V357.51a59.838,59.838,0,1,0-119.676,0v22.446h-1.256a14.427,14.427,0,0,0-14.429,14.426V418.6ZM339.49,357.51a40.064,40.064,0,0,1,80.128,0v22.446h-80.13V357.51Z" transform="translate(339.327 69.057)"/><path class="t" d="M445.064,281.981A38.191,38.191,0,0,0,423.4,273.4c-.026-.8-.024-1.582.013-2.6,4.428-.71,8.215-4.582,10.418-9.807,5.973-5.753,10.031-12.877,8.071-21.855a1.735,1.735,0,0,1,.217-1.319c-2.57-4.6-7.307-6.807-12.562-11.567-17.664-16.006-38.658,6.233-30.708,15.391a16.459,16.459,0,0,1,2.225,5.045,1.575,1.575,0,0,0-.048.152c-.378,1.719-.05,4.613,1.3,6.042a26.312,26.312,0,0,1,.156,2.7,1.708,1.708,0,0,1,.1.256,10.756,10.756,0,0,0,1.486,3.765c1.065,4.274,3.62,8.764,9,10.57.419.141.85.276,1.3.382a6.474,6.474,0,0,1,.189,2.887,34.7,34.7,0,0,0-14.133,4.73c-33.77,16.323-67.15,68.919-63.474,80.514s13.019,25.172,19.287,34.241l.984-.174q.759,2.623,1.516,5.245a4.8,4.8,0,0,0,1.223,2.392,4.854,4.854,0,0,0,3.472.73c1.495-.07,3.124-.2,4.226-1.206a4.488,4.488,0,0,0,1.23-2.246,9.528,9.528,0,0,0-1.121-6.77l.734-.128S353.956,369,354.486,355.713c.193-4.852,11.556-16.286,20.8-24.807-.213,2.957-.328,5.968-.328,9.023l-4.428,105.86s3.824.756,9.949,1.736l5.944,63.218h23.93l.569-59.55c.313.024.626.046.939.067.276.02.554.039.832.056,1.178.085,2.357.161,3.546.23.4.024.8.046,1.2.067.43.024.86.05,1.291.072l2.349,59.055h23.591l4.834-60.146c.03,0,.056-.011.089-.015.973-.159,1.932-.326,2.864-.517.413-.083.815-.176,1.221-.265q1.173-.261,2.3-.558.609-.163,1.2-.332c.752-.22,1.475-.456,2.186-.7.328-.115.669-.224.986-.343,1-.378,1.968-.776,2.87-1.219l-.484-114.5c0-2.473-.076-4.871-.215-7.211-.011-.176-.026-.348-.037-.524q-.209-3.275-.6-6.372c-.028-.206-.052-.408-.08-.615-.026-.185-.046-.374-.072-.561,4.667.926,10.739,2.04,18.685,3.383a33.83,33.83,0,0,0,14.987-.928V296.141C475.64,298.4,453.511,287.08,445.064,281.981Z" transform="translate(377.616 -21.298)"/><g transform="translate(463.577 251.03)"><circle class="u" cx="36.803" cy="36.803" r="36.803" transform="translate(0)"/><circle class="v" cx="19.973" cy="19.973" r="19.973" transform="translate(16.829 16.829)"/></g><g transform="translate(628.431 366.728)"><path class="w" d="M364.219,297.671A59.9,59.9,0,0,0,304.38,357.51v57.541H424.056V357.51A59.906,59.906,0,0,0,364.219,297.671Zm-40.068,97.607V357.51a40.064,40.064,0,0,1,80.128,0v37.767Z" transform="translate(-288.693 -297.671)"/><path class="x" d="M357.711,303.114A47.834,47.834,0,0,0,309.93,350.9V396.84h95.56V350.9A47.835,47.835,0,0,0,357.711,303.114Zm40.062,85.781h-80.13V351.128a40.064,40.064,0,0,1,80.128,0v37.767Z" transform="translate(-282.185 -291.288)"/><path class="y" d="M433.505,456.037H311.862a14.7,14.7,0,0,1-14.7-14.7V350.244a14.7,14.7,0,0,1,14.7-14.7H433.505a14.7,14.7,0,0,1,14.7,14.7v91.093A14.7,14.7,0,0,1,433.505,456.037Z" transform="translate(-297.16 -253.259)"/><path class="w" d="M365.731,371.284a21.958,21.958,0,1,0-32.066,19.482v23.741h20.217V390.766A21.947,21.947,0,0,0,365.731,371.284Z" transform="translate(-268.248 -237.099)"/><path class="z" d="M433.334,335.544H397.049A226.033,226.033,0,0,1,361.1,403.855c-14.594,18.963-37.572,43.027-63.563,42.521a14.419,14.419,0,0,0,13.605,9.66h122.19a14.428,14.428,0,0,0,14.429-14.429v-91.64A14.426,14.426,0,0,0,433.334,335.544Z" transform="translate(-296.716 -253.259)"/></g><g transform="translate(699.368 199.321)"><path class="aa" d="M338.641,299.482l2.881,9.953a4.8,4.8,0,0,0,1.221,2.392,4.854,4.854,0,0,0,3.472.73c1.495-.07,3.124-.193,4.226-1.206a4.475,4.475,0,0,0,1.232-2.246,9.767,9.767,0,0,0-1.38-7.237,29.04,29.04,0,0,0-4.917-5.716" transform="translate(-319.454 -132.046)"/><path class="aa" d="M420.96,252.768a79.362,79.362,0,0,1,4.728-13.5c1.03,1.308.913,3.148.747,4.8a10.867,10.867,0,0,1,5.293-5.592,1.148,1.148,0,0,1,.9-.139,1.167,1.167,0,0,1,.545.856,15.3,15.3,0,0,1-9.129,17.953" transform="translate(-222.922 -199.893)"/><path class="c" d="M383.094,387.308c8.454,2.06,15.528,4.55,19.411,8.028H369.921l.624-7.561Z" transform="translate(-282.774 -25.15)"/><path class="c" d="M368.121,387.308c-8.452,2.06-15.528,4.55-19.41,8.028h32.583l-.624-7.561Z" transform="translate(-307.647 -25.15)"/><g transform="translate(38.204 167.405)"><path class="ab" d="M426.644,302.556l-15.363,191.2a52.322,52.322,0,0,1-7.222,1.312,32,32,0,0,1-4.221-.589c-1.779-.363-3.333-.726-3.333-.726l-5.749-144.527h-7.213L382.161,493.75a31.255,31.255,0,0,1-7.832,1.145,41.879,41.879,0,0,1-8.5-1.145L347.394,297.67Z" transform="translate(-347.394 -297.67)"/></g><g class="ac" transform="translate(60.926 168.809)"><path class="ad" d="M384.927,299.985l-27.06-1.669c-.328,35.214,4.967,161.052,5.508,195.778a32.434,32.434,0,0,0,6.518-1.1l1.382-144.527h7.213l5.749,144.527s1.553.363,3.333.726c.526.093,1.06.187,1.584.274C389.158,454.632,385.605,316.169,384.927,299.985Z" transform="translate(-357.852 -298.316)"/></g><g transform="translate(60.438)"><path class="ae" d="M362.993,255.59a1.5,1.5,0,0,1,.1.256c1.162,6.322,7.163,9.562,13.831,11.4,5.421,1.5,6.679,2.151,11.031-.991,9.03-6.518,17.062-15.178,14.455-27.117a1.744,1.744,0,0,1,.217-1.319c-2.57-4.6-7.3-6.8-12.56-11.567-17.666-16.006-38.66,6.233-30.711,15.391C360.651,243.13,363,249.6,362.993,255.59Z" transform="translate(-357.628 -220.619)"/></g><path class="af" d="M437.595,303.763c0-36.346-15.044-58.946-43.853-58.946s-43.927,30.391-43.927,66.735l-4.428,105.86s67.161,13.321,92.69.856Z" transform="translate(-311.544 -192.243)"/><path class="ag" d="M424.743,286.563a95.526,95.526,0,0,0-3.5-27.078c-2.555,39.551-6.023,144.855-64.893,144.434,21.881,2.735,53.213,4.8,68.882-2.853Z" transform="translate(-298.692 -175.043)"/><path class="aa" d="M392.152,241.024c-1.078-7.152-7.45-14.324-15.232-10.607-4.995,2.386-10.162,2.659-14.237.48-.119,1.377-.289,3.385-.441,5.492-.86-1.582-2.3-1.823-2.735.152-.463,2.116.111,6.049,2.386,6.787,0,.367-.009.737,0,1.049.109,5.347,2.292,13.853,10.968,15.884.467,1.888.3,2.505-.235,5.019.48,1.682,7.224,2.759,9.453.782a39.888,39.888,0,0,1-.178-5.562c5.13-.823,9.414-5.881,11.352-12.382C400.989,243.782,395.451,235.864,392.152,241.024Z" transform="translate(-295.161 -210.318)"/><path class="ah" d="M385.569,238.958a15.908,15.908,0,0,0-3.517-7.793c.215,12.43-5.078,23.982-17.079,26.652.419.141.847.276,1.3.382.467,1.888.3,2.505-.235,5.019.48,1.679,7.224,2.759,9.453.782a39.883,39.883,0,0,1-.178-5.562c5.13-.823,9.414-5.881,11.352-12.382C394.405,241.715,388.867,233.8,385.569,238.958Z" transform="translate(-288.577 -208.252)"/><path class="af" d="M393.56,247.113c-33.767,16.323-67.148,68.919-63.472,80.514s13.019,25.172,19.284,34.241l12.267-2.158s-14.555-21.783-14.024-35.067c.326-8.193,32.522-35.171,32.522-35.171Z" transform="translate(-329.81 -189.551)"/><path class="af" d="M378.3,255.105c5.288,3.8,49.406,30.237,73.668,6.89,17.52-16.862,19.287-20.119,19.287-20.119l6.012,10.642s-27.419,48.387-60.591,42.79-34.009-7.318-34.009-7.318Z" transform="translate(-272.946 -195.692)"/></g><g transform="translate(228.039 206.757)"><path class="t" d="M144.179,461.786a53.126,53.126,0,0,0-30.156,22.793h89.629a53.107,53.107,0,0,0-30.156-22.793V242.206H144.179v3.581H112.873v26.433h31.306v6.292H112.873v26.43h31.306Z" transform="translate(-112.873 -202.742)"/><g transform="translate(12.26 39.464)"><rect class="y" width="37.55" height="26.433" transform="translate(6.931 3.581)"/><rect class="y" width="37.55" height="26.43" transform="translate(6.931 36.305)"/><rect class="ai" width="9.573" height="26.433" transform="translate(34.908 3.581)"/><rect class="ai" width="9.573" height="26.43" transform="translate(34.908 36.305)"/><rect class="y" width="29.316" height="229.735" transform="translate(38.237)"/><path class="ai" d="M143.615,475.581h.91a1.786,1.786,0,0,0,1.786-1.786V247.632a1.786,1.786,0,0,0-1.786-1.786h-.91a1.786,1.786,0,0,0-1.786,1.786V473.792A1.786,1.786,0,0,0,143.615,475.581Z" transform="translate(-91.178 -237.938)"/><g transform="translate(0 217.496)"><path class="y" d="M118.516,395.208A52.894,52.894,0,1,1,171.409,448.1,52.955,52.955,0,0,1,118.516,395.208Zm27.276,0a25.619,25.619,0,1,0,25.618-25.62A25.647,25.647,0,0,0,145.792,395.208Z" transform="translate(-118.516 -342.312)"/></g><path class="ai" d="M129.923,381.83a28.11,28.11,0,1,0,28.11-28.11A28.142,28.142,0,0,0,129.923,381.83Zm2.492,0a25.619,25.619,0,1,1,25.618,25.618A25.649,25.649,0,0,1,132.415,381.83Z" transform="translate(-105.14 -111.438)"/></g><g transform="translate(62.155)"><path class="t" d="M336.835,312.782c-9.279,8.221-42.721,43.245-48.852,24.184-4.854-15.089-15.033-35.853-20.994-42.819a28.5,28.5,0,0,0-14.47-8.873v-2.412c5.8-.028,14.872-1.16,14.872-22.059,0-6.318-.6-10.481-1.686-13.208,1.732-1.742,1.616-5.175.393-7.191-1.621-2.672-5.886-4.995-8.719-6.251-6.707-2.972-15.467-4.354-21.9-.189a27.864,27.864,0,0,0-8.091-7.072,19.563,19.563,0,0,0-8.834-2.846c-6.181-.122-11.554,4.621-14.411,10.105a22.574,22.574,0,0,0-2.451,14.55,16.249,16.249,0,0,0,8.645,11.626,7.742,7.742,0,0,0,4.276.841,8.844,8.844,0,0,0,4.923-2.977c3.3-3.433,3.865-7.53,6.29-11.246a4.108,4.108,0,0,1,1.349-1.262,26.684,26.684,0,0,0-1.136,7.444c-.057,7.209,2.477,14.216,5.812,20.61a11.941,11.941,0,0,0,3.452,4.51c1.512,1.047,5.416,2.073,7.009,1.047l-.669,5.121a37.141,37.141,0,0,0-13.6,3.969.123.123,0,0,0,0-.015c-25.135,5.779-44.1,67.5-77.718,63.407v.083c-4.087-1.138-8.575-1.464-8.812,2.54-.463,7.837,4.41,8.838,8.812,8.193v.163c14.072,0,32.735-4.061,49.126-22.176-9.043,50.977-5.432,117.732-5.432,117.732q3.637.525,7.244.963l4.119,46.706h21.409l.05-44.563c4.321.176,8.615.265,12.869.235l.5,44.327h24.829l4.8-46.486c4.4-.619,8.758-1.36,13.062-2.264-.884-28.036-1-64.682-2.861-96.429a10.323,10.323,0,0,0,4.6,2.64c2.918.721,15.487,15.217,24.529,4.2,9.171-11.178,28.336-34.25,35.358-46.138C343,317.575,338.949,316.412,336.835,312.782Z" transform="translate(-141.481 -224.04)"/><path class="aj" d="M194.653,248.6l-1.414,10.818,11.378,1.247V249.258Z" transform="translate(-80.787 -195.239)"/><path class="ak" d="M161.915,286.8s-15.061-7.422-15.5,0c-.83,14.055,15.5,6.133,15.5,6.133Z" transform="translate(-135.728 -154.315)"/><path class="aa" d="M162.9,285.82s-15.059-7.422-15.5,0c-.83,14.055,15.5,6.133,15.5,6.133Z" transform="translate(-134.578 -155.465)"/><g transform="translate(103.592 18.589)"><path class="aa" d="M189.161,250.771c0,9.833,10.153,22.063,19.986,22.063,5.788,0,15.124-.867,15.124-22.063,0-22.283-7.472-17.8-17.305-17.8A17.8,17.8,0,0,0,189.161,250.771Z" transform="translate(-189.161 -232.598)"/></g><path class="ah" d="M204.127,258.853c.03-8.271,1.091-18.092,4.143-26.1-.43.015-.865.026-1.306.026a17.8,17.8,0,0,0-17.8,17.8c0,9.647,9.77,21.57,19.424,22.022C205.442,268.993,204.108,264.463,204.127,258.853Z" transform="translate(-85.57 -213.824)"/><path class="y" d="M223.884,244.91c-1.575.235-3.259-.517-4.736.078-2.366.954-2.525,4.563-4.708,5.888-2.722,1.656-6.829-1.21-9.208.917-1.4,1.254-1.238,3.461-1.093,5.347a40.119,40.119,0,0,1-1.625,14.776c-.339,1.108,1.123,3.092.252,3.846-1.451,1.258-5.642.156-7.215-.943a12.041,12.041,0,0,1-3.452-4.556c-3.335-6.459-5.868-13.536-5.812-20.821s3.033-14.807,8.914-19.019c6.477-4.639,15.539-3.231,22.428-.148,2.833,1.269,7.1,3.615,8.719,6.316C227.941,239.244,227.691,244.343,223.884,244.91Z" transform="translate(-88.941 -220.064)"/><path class="ai" d="M216.6,229.823c-2.32,2.077-4.658,5.821-6.407,7.042-2.416,1.69-5.312,2.031-8.061,2.874-12.662,3.889-13.538,23.308-8.011,33.676a4.275,4.275,0,0,0,3.239-.452c.871-.756-.591-2.738-.252-3.846a40.13,40.13,0,0,0,1.625-14.776c-.146-1.886-.311-4.093,1.093-5.347,2.381-2.127,6.485.739,9.208-.917,2.181-1.327,2.342-4.934,4.708-5.888,1.48-.6,3.161.156,4.736-.078,3.8-.567,4.054-5.666,2.464-8.317A13.62,13.62,0,0,0,216.6,229.823Z" transform="translate(-83.538 -217.263)"/><path class="y" d="M200.962,226.921a19.421,19.421,0,0,0-8.832-2.877c-6.183-.124-11.556,4.669-14.411,10.207a23.011,23.011,0,0,0-2.451,14.7,16.4,16.4,0,0,0,8.645,11.745,7.677,7.677,0,0,0,4.276.85,8.845,8.845,0,0,0,4.923-3.007c3.3-3.47,3.865-7.609,6.29-11.361,1.962-3.035,6.264-1.788,9.138-3.77C215.829,238.384,205.448,229.409,200.962,226.921Z" transform="translate(-102.266 -224.042)"/><path class="ai" d="M201.38,233.585c-1.323-.682-2.359-1.921-3.674-2.581-1.875-2.042-11.493-3.111-13.5,10.279a15.9,15.9,0,0,1-6.835,10.12,14.152,14.152,0,0,0,3.667,2.562,7.7,7.7,0,0,0,4.276.852,8.845,8.845,0,0,0,4.923-3.007c3.3-3.47,3.865-7.609,6.29-11.361,1.962-3.035,6.264-1.788,9.138-3.77a5.8,5.8,0,0,0,2.068-2.353A7.762,7.762,0,0,1,201.38,233.585Z" transform="translate(-99.393 -217.309)"/><path class="w" d="M192.612,387.308c8.452,2.06,15.528,4.55,19.411,8.028H179.439l.624-7.561Z" transform="translate(-96.969 -32.587)"/><path class="w" d="M206.056,387.308c8.452,2.06,15.528,4.55,19.411,8.028H192.883l.624-7.561Z" transform="translate(-81.204 -32.587)"/><path class="ak" d="M244.821,261.736a4.559,4.559,0,0,0-.682-.306c-1.212-.326-2.355.515-3.363,1.264a56.283,56.283,0,0,0-6.609,5.7h.011a7.849,7.849,0,0,0-1.264,1.4,5.272,5.272,0,0,0-.393,5.649,4.784,4.784,0,0,0,3.9,2.288,10.091,10.091,0,0,0,6.842-2.987c1.516-1.771,1.395-3.75.3-5.808a4.713,4.713,0,0,0-3-2.468,25.389,25.389,0,0,0,3.893-2.861,2.253,2.253,0,0,0,.684-.884A.826.826,0,0,0,244.821,261.736Z" transform="translate(-35.487 -180.283)"/><g transform="translate(196.875 78.58)"><g transform="translate(0 4.95)"><path class="aa" d="M243.776,265.123c1.1,2.057,1.223,4.035-.293,5.808a10.1,10.1,0,0,1-6.842,2.987,4.787,4.787,0,0,1-3.9-2.288,5.277,5.277,0,0,1,.393-5.649C235.507,262.546,241.371,260.624,243.776,265.123Z" transform="translate(-232.096 -262.488)"/></g><g transform="translate(2.294)"><path class="aa" d="M238.705,265.855a25.386,25.386,0,0,0,4.726-3.389,2.273,2.273,0,0,0,.684-.884.826.826,0,0,0-.308-.993,4.339,4.339,0,0,0-.682-.306c-1.212-.326-2.355.515-3.363,1.264a56.287,56.287,0,0,0-6.609,5.7C234.33,267.6,237.632,266.45,238.705,265.855Z" transform="translate(-233.152 -260.21)"/></g></g><g transform="translate(134.962 70.108)"><path class="al" d="M231.867,300.352c12.086-8.039,21.655-16.658,32.6-26.376a1.654,1.654,0,0,1,2.359.163c2.008,2.388,5.286,5.94,4.938,7.439a5.053,5.053,0,0,1-1.358,2.138q-15.327,16.986-30.652,33.97a33.567,33.567,0,0,1-6.594,6.105,11.288,11.288,0,0,1-8.582,1.81c-4.917-1.217-7.669-6.279-10.348-10.579-13.2-21.205-11.028-28.868-9.414-35.4,1.123-4.545,2.54-9.025,3.359-13.64.261-1.46-3.229-9.571-1.241-9.673,5.962,6.966,14.9,28.186,20.994,42.819A2.677,2.677,0,0,0,231.867,300.352Z" transform="translate(-203.599 -256.31)"/></g><g transform="translate(67.872 177.487)"><path class="am" d="M172.72,310.185l15.363,174.228a56.844,56.844,0,0,0,7.224,1.2,35.172,35.172,0,0,0,4.221-.534c1.779-.33,3.331-.663,3.331-.663l.154-131.7h12.7l1.488,131.7a34.067,34.067,0,0,0,7.832,1.043,45.712,45.712,0,0,0,8.5-1.043l18.439-178.679Z" transform="translate(-172.72 -305.733)"/><g transform="translate(39.518 17.503)"><path class="an" d="M190.909,313.8c.091,5.9-.317,11.228,1.738,16.588a10.378,10.378,0,0,0,10.479,6.813c7.6-.154,12.884-4.3,12.912-11.984,0-.988.491-11.4.989-11.424Z" transform="translate(-190.909 -313.789)"/></g><g transform="translate(3.446 17.518)"><path class="an" d="M174.306,313.8c.089,5.9-.169,11.226,1.286,16.595,1.136,4.2,3.7,6.944,7.331,6.861,5.3-.119,8.25-6.01,8.938-11.924.115-.976.289-11.4.634-11.417Z" transform="translate(-174.306 -313.796)"/></g><g transform="translate(0.23 10.315)"><path class="ao" d="M202.881,347.128a.483.483,0,0,0,.054,0,.318.318,0,0,0,.259-.367c-2.038-11.839-.639-34.5-.624-34.723a.322.322,0,0,0-.091-.243.343.343,0,0,0-.241-.1c-.206.011-20.5.954-29.018-1.2a.313.313,0,0,0-.385.23.318.318,0,0,0,.23.385c7.974,2.018,26.087,1.351,28.851,1.234-.169,2.942-1.258,23.423.654,34.521A.316.316,0,0,0,202.881,347.128Z" transform="translate(-172.826 -310.481)"/></g><g transform="translate(31.483 6.936)"><path class="ao" d="M188.557,348.952h.028a.321.321,0,0,0,.291-.343c-1.21-13.842-1.351-24.76-.448-34.326,12.119-.115,26.824-1.7,43.714-4.728a.32.32,0,0,0,.256-.369.312.312,0,0,0-.369-.256c-16.988,3.04-31.753,4.628-43.89,4.719a.316.316,0,0,0-.313.289c-.939,9.673-.808,20.708.415,34.723A.314.314,0,0,0,188.557,348.952Z" transform="translate(-187.21 -308.925)"/></g><g class="ap" transform="translate(22.853 46.553)"><path class="aq" d="M187.194,459.949c1.779-.33,3.331-.663,3.331-.663l.154-131.7h1.067a.765.765,0,0,0-1.067-.33c-2.492,1.119-3.663,2.851-5.214,4.884a10.1,10.1,0,0,0-1.984,5.723C182.464,378.457,184.828,409.358,187.194,459.949Z" transform="translate(-183.238 -327.16)"/></g><g transform="translate(59.226 9.829)"><path class="ao" d="M200.265,475.451a.314.314,0,0,1-.282-.348l.265-2.609a.31.31,0,0,1,.348-.285.317.317,0,0,1,.282.348l-.265,2.609a.317.317,0,0,1-.317.287A.146.146,0,0,1,200.265,475.451Zm.784-7.674a.312.312,0,0,1-.282-.345l.517-5.06a.3.3,0,0,1,.348-.282.312.312,0,0,1,.282.345l-.515,5.06a.318.318,0,0,1-.317.287A.082.082,0,0,1,201.049,467.777Zm1.032-10.12a.315.315,0,0,1-.282-.348l.517-5.058a.317.317,0,1,1,.63.063l-.515,5.06a.317.317,0,0,1-.317.285A.171.171,0,0,1,202.081,457.656Zm1.034-10.12a.315.315,0,0,1-.282-.348l.517-5.062c.017-.174.185-.335.348-.282a.313.313,0,0,1,.282.345l-.515,5.062a.317.317,0,0,1-.317.287A.169.169,0,0,1,203.115,447.536Zm1.036-10.122a.314.314,0,0,1-.282-.348l.517-5.062a.3.3,0,0,1,.348-.282.315.315,0,0,1,.282.348l-.517,5.062a.316.316,0,0,1-.315.285A.155.155,0,0,1,204.152,437.414Zm1.032-10.12a.314.314,0,0,1-.282-.348l.517-5.06a.293.293,0,0,1,.348-.283.314.314,0,0,1,.282.348l-.517,5.058a.316.316,0,0,1-.315.287A.168.168,0,0,1,205.184,427.294Zm1.034-10.122a.314.314,0,0,1-.282-.348l.519-5.058a.309.309,0,0,1,.348-.285.314.314,0,0,1,.282.348l-.519,5.06a.316.316,0,0,1-.317.285A.142.142,0,0,1,206.218,417.171Zm1.036-10.12a.315.315,0,0,1-.282-.348l.517-5.06c.017-.174.185-.339.348-.282a.314.314,0,0,1,.282.348l-.517,5.058a.318.318,0,0,1-.315.287A.165.165,0,0,1,207.254,407.051Zm1.034-10.122a.317.317,0,0,1-.285-.348l.517-5.06a.3.3,0,0,1,.348-.285.314.314,0,0,1,.282.348l-.517,5.062a.316.316,0,0,1-.315.285A.129.129,0,0,1,208.288,396.928Zm1.032-10.12a.315.315,0,0,1-.282-.348l.519-5.062a.318.318,0,0,1,.315-.287.09.09,0,0,1,.033,0,.316.316,0,0,1,.285.348l-.519,5.06a.316.316,0,0,1-.315.287A.178.178,0,0,1,209.32,386.808Zm1.036-10.122a.313.313,0,0,1-.282-.345l.517-5.06c.017-.174.185-.335.348-.285a.317.317,0,0,1,.282.348l-.515,5.06a.318.318,0,0,1-.317.287A.078.078,0,0,1,210.357,376.686Zm1.032-10.12a.314.314,0,0,1-.282-.348l.517-5.06a.3.3,0,0,1,.348-.283.316.316,0,0,1,.282.348l-.515,5.058a.317.317,0,0,1-.317.287A.183.183,0,0,1,211.389,366.566Zm1.034-10.118a.315.315,0,0,1-.282-.348l.519-5.062a.3.3,0,0,1,.348-.285.314.314,0,0,1,.282.348l-.519,5.062a.318.318,0,0,1-.317.287A.138.138,0,0,1,212.423,356.448Zm1.036-10.125a.314.314,0,0,1-.282-.348l.517-5.062a.31.31,0,0,1,.348-.283.314.314,0,0,1,.282.348l-.517,5.062a.316.316,0,0,1-.315.285A.15.15,0,0,1,213.459,346.323Zm1.032-10.122a.312.312,0,0,1-.282-.345l.517-5.06c.017-.174.187-.339.348-.282a.313.313,0,0,1,.282.345l-.517,5.06a.318.318,0,0,1-.317.287A.078.078,0,0,1,214.491,336.2Zm1.034-10.12a.314.314,0,0,1-.282-.348l.519-5.06a.3.3,0,0,1,.348-.282.314.314,0,0,1,.282.348l-.519,5.06a.317.317,0,0,1-.317.285A.155.155,0,0,1,215.525,326.08Zm1.036-10.12a.317.317,0,0,1-.285-.348l.517-5.06a.294.294,0,0,1,.348-.285.315.315,0,0,1,.282.348l-.517,5.06a.318.318,0,0,1-.315.287A.138.138,0,0,1,216.562,315.96Z" transform="translate(-199.98 -310.257)"/></g></g><path class="w" d="M229.157,253.649c-25.138,5.779-44.1,67.5-77.72,63.407v10.981c15.739,0,37.224-5.025,54.844-29.17C231.758,263.954,229.157,253.649,229.157,253.649Z" transform="translate(-129.806 -189.323)"/><path class="ar" d="M229.157,253.649c-25.138,5.779-44.1,67.5-77.72,63.407v10.981c15.739,0,37.224-5.025,54.844-29.17C231.758,263.954,229.157,253.649,229.157,253.649Z" transform="translate(-129.806 -189.323)"/><path class="al" d="M244.907,261.644c15.437,17.69,14.148,107.381,15.906,163.082-27.821,5.84-57.645,5.592-88.879,1.08,0,0-4.858-89.748,10.785-140.582C193.343,250.709,228.619,242.977,244.907,261.644Z" transform="translate(-106.606 -191.537)"/><path class="as" d="M193.224,369.851a197.544,197.544,0,0,1-8.319-58.314c.046-16.653.458-34.739,4.83-51.179a54.77,54.77,0,0,0-7.016,14.783c-15.645,50.834-10.785,140.582-10.785,140.582a304.3,304.3,0,0,0,46.215,3.333C206.814,404.692,198.684,387.81,193.224,369.851Z" transform="translate(-106.607 -181.456)"/></g></g><g transform="translate(97.718 152.894)"><path class="m" d="M68.771,259.283c2.268-.122,17.738-11.578,23.693-15.439A16.291,16.291,0,0,0,97.013,240a5.736,5.736,0,0,0,.865-5.642c-1.056-2.242-2.811-4.48-7.239-4.471-7.706.017-10.381,2.549-14.129,6.425C64.117,249.126,68.771,259.283,68.771,259.283Z" transform="translate(-35.273 -163.325)"/><path class="m" d="M106.191,270.062c6.735,3.027,13.931,6.042,21.253,5.106,2.842-.363,5.942-1.653,6.887-4.356.808-2.309-.306-4.958-2.138-6.581a15.2,15.2,0,0,0-6.624-2.987c-8.967-2.19-21.551-.978-30.428,1.543C95.141,262.784,102.172,268.252,106.191,270.062Z" transform="translate(-3.346 -127.891)"/><path class="m" d="M124.054,226.609c-3-1.9-6.322-4.434-6.32-7.987s3.72-6.279,7.283-6.3,6.87,1.925,9.547,4.276c11.333,9.949,9.92,21.292,9.92,21.292S127.4,228.723,124.054,226.609Z" transform="translate(23.148 -183.918)"/><path class="m" d="M128.971,211.6c-2.635-1.132-5.356-2.5-6.9-4.917a4.694,4.694,0,0,1-.717-3.982c.776-2.205,2.157-4.185,7.713-3.176,17.59,3.192,21.422,15.239,21.422,15.239S133.642,213.6,128.971,211.6Z" transform="translate(27.165 -199.251)"/><path class="m" d="M148.476,230.935a27.792,27.792,0,0,0,18.789-9.636,17.258,17.258,0,0,0,3.776-6.989,7.652,7.652,0,0,0-2.062-7.357c-2.47-2.127-6.388-1.788-9.11.009s-4.469,4.726-5.884,7.663C152.1,218.538,148.476,230.935,148.476,230.935Z" transform="translate(59.197 -191.942)"/><path class="at" d="M134.576,490.4q-25.629-22.595-51.255-45.183c-9.106-8.026-18.4-16.288-24.169-26.969-12.4-22.958-5.251-52.791,11.491-72.806s41.265-31.829,65.9-40.431S186.82,290.376,210.3,279c14.728-7.133,29.535-17.759,33.574-33.618A33.544,33.544,0,0,0,213.37,203.62" transform="translate(-52.891 -194.127)"/><path class="at" d="M170.782,209.66c-4.667,14.335-22.852,23.056-31.149,35.473" transform="translate(48.828 -187.044)"/><path class="at" d="M123.921,217.248c3.581,3.78,7.869,6.907,10.994,11.072,6.6,8.8,7.152,23.1-2.614,31.977" transform="translate(30.403 -178.146)"/><path class="at" d="M81.576,254.185c15.072,11.615,34.886,19.356,53.9,20.095" transform="translate(-19.253 -134.831)"/><path class="at" d="M67.076,295.216c-6.942-20.464.621-44.981,17.885-57.98" transform="translate(-39.261 -154.707)"/></g><g transform="translate(720.804)"><path class="m" d="M340.9,139.519c-.817-2.533-.773-5.645,1.091-7.537a5.528,5.528,0,0,1,5.89-1.323c14.944,6.592,13.327,29.974,13.327,29.974S347.029,158.58,340.9,139.519Z" transform="translate(-338.84 -127.227)"/><path class="m" d="M341.368,157.642c-9.666,17.522,24.69,16.186,37.079,5.866C378.447,163.51,349.69,142.559,341.368,157.642Z" transform="translate(-339.676 -101.552)"/><path class="m" d="M361.623,142.5c-2.331-3.207-3.161-7.985-.621-11.028,1.89-2.266,5.186-2.968,8.08-2.407a18.924,18.924,0,0,1,9.077,5.549c11.307,14.109,5.994,27.916,5.994,27.916S365.445,147.749,361.623,142.5Z" transform="translate(-316.493 -128.879)"/><path class="m" d="M423.495,160.247c-.837-2.729-.639-6.06,1.477-7.971A6.747,6.747,0,0,1,430,150.768a15.359,15.359,0,0,1,5.141,1.538,16.46,16.46,0,0,1,7.913,7.889c4.248,8.78,1.362,19.645,1.362,19.645S425.574,167.05,423.495,160.247Z" transform="translate(-241.926 -103.238)"/><path class="m" d="M419.288,172.814a22.012,22.012,0,0,0-22.78-3.678,11.665,11.665,0,0,0-4.871,3.667c-2.714,3.765-1.764,9.269,1.052,12.958s7.087,5.931,11.3,7.852c7.648,3.481,19.51,4.178,27.649,6.259C431.641,199.874,431.607,183.668,419.288,172.814Z" transform="translate(-280.638 -83.649)"/><path class="at" d="M345.551,136.266c5.054,16.595,19.358,29.118,35.286,35.892s33.468,8.562,50.732,9.684S466.3,183.519,483,188.067c16.269,4.43,32.47,13.657,39.453,29.048,8.5,18.735.973,41.137-10.957,57.882s-28,30.241-39.542,47.258c-5.3,7.815-9.727,16.962-8.654,26.352,1.428,12.519,11.943,21.737,21.714,29.655" transform="translate(-332.787 -120.216)"/><path class="at" d="M363.865,133.464c11.441,12.695,20.586,32.549,22.811,49.515" transform="translate(-311.311 -123.501)"/><path class="at" d="M346.16,158.7c6.542,1.74,13.171,3.494,19.938,3.511s14.607-3.743,19.471-8.46" transform="translate(-332.073 -99.707)"/><path class="at" d="M428.4,155.593a33.936,33.936,0,0,1,10.175,22.839c.317,8.541-4.4,18.889-10.075,25.268" transform="translate(-235.637 -97.552)"/><path class="at" d="M398.885,173.431c12.239,11.3,22.9,20.443,36.505,30.043,6.212,4.382,18.546,10,24.019,8.554" transform="translate(-270.244 -76.634)"/></g></g></g></svg>